<svg xmlns="http://www.w3.org/2000/svg">

    <symbol id="moon" viewBox="0 0 12 12" fill="none">
        <path d="M8.71854 0C9.58304 0.483121 10.3238 1.16007 10.8826 1.97768C11.4414 2.79529 11.8031 3.73131 11.9392 4.71225C12.0753 5.69318 11.9822 6.69231 11.6671 7.63119C11.3521 8.57008 10.8237 9.42315 10.1234 10.1234C9.42315 10.8237 8.57008 11.3521 7.63119 11.6671C6.69231 11.9822 5.69318 12.0753 4.71225 11.9392C3.73131 11.8031 2.79529 11.4414 1.97768 10.8826C1.16007 10.3238 0.483121 9.58304 0 8.71854C2.4395 10.0842 5.58341 9.73311 7.65789 7.65862C9.73311 5.58341 10.085 2.44023 8.71854 0Z" fill="white"/>
    </symbol>

    <symbol id="burger" viewBox="0 0 37 36" fill="none">
        <path d="M1.76928 16.4207H14.7061C15.6699 16.4207 16.448 15.6425 16.448 14.6787V1.74194C16.448 0.778041 15.6699 0 14.7061 0H1.76928C0.805385 0 0.0273438 0.778041 0.0273438 1.74194V14.6787C0.0273438 15.6425 0.805385 16.4207 1.76928 16.4207ZM34.2854 0H21.3486C20.3848 0 19.6067 0.778041 19.6067 1.74194V14.6787C19.6067 15.6425 20.3848 16.4207 21.3486 16.4207H34.2854C35.2493 16.4207 36.0273 15.6425 36.0273 14.6787V1.74194C36.0273 0.778041 35.2493 0 34.2854 0ZM1.76928 36H14.7061C15.6699 36 16.448 35.2219 16.448 34.2581V21.3213C16.448 20.3574 15.6699 19.5793 14.7061 19.5793H1.76928C0.805385 19.5793 0.0273438 20.3574 0.0273438 21.3213V34.2581C0.0273438 35.2219 0.805385 36 1.76928 36ZM34.2854 19.5793H21.3486C20.3848 19.5793 19.6067 20.3574 19.6067 21.3213V34.2581C19.6067 35.2219 20.3848 36 21.3486 36H34.2854C35.2493 36 36.0273 35.2219 36.0273 34.2581V21.3213C36.0273 20.3574 35.2493 19.5793 34.2854 19.5793Z" fill="#2D2D2D"/>
    </symbol>

    <symbol id="tg" viewBox="0 0 25 25" fill="none">
        <path d="M12.5 0C5.59687 0 0 5.59687 0 12.5C0 19.4031 5.59687 25 12.5 25C19.4031 25 25 19.4031 25 12.5C25 5.59687 19.4031 0 12.5 0ZM18.6396 8.56354L16.5875 18.2302C16.4365 18.9156 16.0281 19.0823 15.4583 18.7594L12.3333 16.4573L10.8271 17.9094C10.6812 18.0969 10.4552 18.2167 10.2021 18.2167C10.2 18.2167 10.199 18.2167 10.1969 18.2167L10.4187 15.0354L16.2104 9.80417C16.4604 9.58229 16.1542 9.45625 15.8219 9.67813L8.66667 14.1844L5.58333 13.2219C4.91667 13.0104 4.89792 12.5552 5.72396 12.2281L17.7719 7.58437C18.3323 7.38021 18.8198 7.71771 18.6385 8.56458L18.6396 8.56354Z" fill="#102F28"/>
    </symbol>

    <symbol id="wa" viewBox="0 0 25 25" fill="none">
        <path d="M12.5031 0H12.4969C5.6047 0 1.64015e-05 5.60625 1.64015e-05 12.5C-0.00426344 15.1328 0.829155 17.6987 2.3797 19.8266L0.821891 24.4703L5.62658 22.9344C7.66466 24.2865 10.0573 25.0052 12.5031 25C19.3953 25 25 19.3922 25 12.5C25 5.60781 19.3953 0 12.5031 0ZM19.7766 17.6516C19.475 18.5031 18.2781 19.2094 17.3235 19.4156C16.6703 19.5547 15.8172 19.6656 12.9453 18.475C9.27189 16.9531 6.90626 13.2203 6.72189 12.9781C6.54533 12.7359 5.23751 11.0016 5.23751 9.20781C5.23751 7.41406 6.14845 6.54063 6.51564 6.16563C6.8172 5.85781 7.31564 5.71719 7.79376 5.71719C7.94845 5.71719 8.08751 5.725 8.21251 5.73125C8.5797 5.74687 8.76408 5.76875 9.00626 6.34844C9.30783 7.075 10.0422 8.86875 10.1297 9.05313C10.2188 9.2375 10.3078 9.4875 10.1828 9.72969C10.0656 9.97969 9.96251 10.0906 9.77814 10.3031C9.59376 10.5156 9.41876 10.6781 9.23439 10.9062C9.06564 11.1047 8.87501 11.3172 9.08751 11.6844C9.30001 12.0437 10.0344 13.2422 11.1156 14.2047C12.511 15.4469 13.6422 15.8438 14.0469 16.0125C14.3485 16.1375 14.7078 16.1078 14.9281 15.8734C15.2078 15.5719 15.5531 15.0719 15.9047 14.5797C16.1547 14.2266 16.4703 14.1828 16.8016 14.3078C17.1391 14.425 18.925 15.3078 19.2922 15.4906C19.6594 15.675 19.9016 15.7625 19.9906 15.9172C20.0781 16.0719 20.0781 16.7984 19.7766 17.6516Z" fill="#102F28"/>
    </symbol>

    <symbol id="phone" viewBox="0 0 25 25" fill="none">
        <path fill-rule="evenodd" clip-rule="evenodd" d="M12.5 0C19.4038 0 25 5.59616 25 12.5C25 19.4038 19.4038 25 12.5 25C5.59615 25 0 19.4038 0 12.5C0 5.59616 5.59615 0 12.5 0ZM13.2486 5.09136C14.0986 5.19761 14.7856 5.40241 15.5389 5.7702C16.2803 6.1327 16.7548 6.47597 17.3822 7.1C17.9702 7.68943 18.2966 8.13605 18.6423 8.82932C19.124 9.79615 19.3986 10.9462 19.4452 12.2116C19.4625 12.6433 19.45 12.7394 19.3514 12.863C19.1639 13.1019 18.751 13.0625 18.6101 12.7938C18.5659 12.7048 18.5534 12.6284 18.5385 12.2832C18.5139 11.7529 18.4769 11.4096 18.4029 11C18.1111 9.39423 17.3404 8.11154 16.1096 7.19135C15.0846 6.42164 14.0245 6.04664 12.6361 5.96539C12.1664 5.93799 12.0851 5.92067 11.9789 5.83942C11.7808 5.68365 11.7712 5.31874 11.9615 5.14855C12.0774 5.04278 12.1586 5.02739 12.5615 5.03989C12.7716 5.0471 13.0808 5.07212 13.249 5.09183L13.2486 5.09136ZM7.60049 5.35818C7.68703 5.38799 7.8202 5.45673 7.89713 5.50625C8.36636 5.81683 9.67356 7.48701 10.101 8.32115C10.3457 8.79711 10.4269 9.14999 10.3505 9.41153C10.2711 9.69278 10.1404 9.84085 9.55482 10.312C9.3202 10.5019 9.1 10.6966 9.06586 10.7486C8.97692 10.8769 8.90479 11.1284 8.90479 11.3063C8.90768 11.7183 9.17404 12.4659 9.52501 13.0404C9.79712 13.487 10.2837 14.0596 10.7654 14.4985C11.3313 15.0163 11.8303 15.3692 12.3937 15.6481C13.1178 16.0086 13.5601 16.1 13.8836 15.949C13.9654 15.912 14.0519 15.8625 14.0788 15.8404C14.1034 15.8183 14.2938 15.5865 14.5015 15.3298C14.9015 14.8264 14.9928 14.7452 15.2673 14.6514C15.6159 14.5332 15.9716 14.5649 16.3298 14.7476C16.6014 14.8885 17.1942 15.2558 17.5774 15.5221C18.0812 15.875 19.1591 16.7534 19.3043 16.9284C19.5615 17.2442 19.6058 17.649 19.4332 18.0952C19.2505 18.5663 18.5389 19.45 18.0418 19.8274C17.5923 20.1678 17.2736 20.2986 16.8534 20.3178C16.5072 20.3356 16.3644 20.3058 15.9221 20.1231C12.4529 18.6952 9.68317 16.5635 7.48461 13.6351C6.33557 12.1053 5.46057 10.5192 4.86298 8.87354C4.51442 7.91393 4.4976 7.49711 4.78366 7.00625C4.90722 6.79904 5.43365 6.28558 5.81683 5.99952C6.45385 5.52596 6.74807 5.35047 6.98269 5.30143C7.14326 5.26682 7.42261 5.29424 7.60049 5.35818ZM13.4192 6.88028C14.9192 7.09999 16.0803 7.79568 16.8414 8.92548C17.2688 9.56202 17.5356 10.3096 17.6269 11.1111C17.6591 11.4048 17.6591 11.9404 17.6245 12.0293C17.5923 12.113 17.4885 12.2264 17.3995 12.2731C17.3034 12.3226 17.0981 12.3178 16.9846 12.2586C16.7942 12.1625 16.7375 12.0091 16.7375 11.5952C16.7375 10.9558 16.5716 10.2827 16.2856 9.75914C15.9632 9.1661 15.4869 8.67097 14.9067 8.32596C14.4101 8.0298 13.676 7.81058 13.0067 7.75625C12.7644 7.73654 12.6308 7.68702 12.5394 7.58077C12.4711 7.50568 12.4303 7.40965 12.4236 7.30837C12.4168 7.20709 12.4446 7.10652 12.5024 7.02306C12.6308 6.82354 12.8288 6.79133 13.4192 6.88028ZM13.9452 8.74279C14.4322 8.84663 14.8053 9.03124 15.124 9.33028C15.5341 9.7173 15.7587 10.1861 15.8577 10.8596C15.9245 11.2986 15.8971 11.4716 15.7418 11.6144C15.5957 11.7476 15.3264 11.7529 15.1635 11.6269C15.0447 11.538 15.0077 11.4442 14.9808 11.1904C14.9485 10.8524 14.8894 10.6154 14.788 10.3957C14.5707 9.92932 14.1875 9.68799 13.5404 9.60867C13.2361 9.57165 13.1447 9.5375 13.0461 9.42116C12.8659 9.20674 12.9346 8.85864 13.1846 8.73076C13.2784 8.68364 13.3178 8.67886 13.5255 8.69088C13.6663 8.69921 13.8065 8.71655 13.9452 8.74279Z" fill="#102F28"/>
    </symbol>

</svg>